<?xml version="1.0" encoding="utf-8"?>
<svg version="1.1" id="Layer_1" xmlns="http://www.w3.org/2000/svg" xmlns:xlink="http://www.w3.org/1999/xlink" x="0px" y="0px"
	 width="50px" height="50px" viewBox="0 0 512 512" style="enable-background:new 0 0 512 512;" xml:space="preserve">
<path fill="#212121" class="st0" d="M481.2,497.3l-55.4-369.6c-0.9-6.8-7.2-11.9-14.5-11.9h-37.1c-3.6-21.3-17.9-48-32.2-68.9
	c-18.7-27.3-42.6-42.4-63.8-42.4c-9.5,0-18.8,1.3-27.7,3.9c-8.9-2.6-18.2-3.9-27.7-3.9c-21.1,0-45,15-63.7,42.4
	c-14.3,20.9-29.6,47.6-33.3,68.9H78.7c-7.6,0-13.9,5.3-14.6,12.4L30.9,498c-0.3,3.9,1.2,7.6,4,10.3c2.8,2.7,6.6,4.2,10.5,4.2h421.3
	c4.2,0,8.1-1.6,10.8-4.4C480.4,505.2,481.7,501.2,481.2,497.3z M140.4,485.5H61.1l31-342.6h17.3L140.4,485.5z M155.6,115.9
	c6-26.7,28.4-67.9,61.7-81.8c-13.3,22.1-30.2,69.4-32.1,81.8H155.6z M215,115.8c5.1-24.8,20.5-69.8,35.5-78.4
	C265.7,46,282,91,287.1,115.8H215z M285.8,34.1c31.2,12.9,52.6,55,58.7,81.7h-27.7C314.9,103.3,298.9,56.2,285.8,34.1z M450.1,485.5
	H169.8l-31-342.6h259.7L450.1,485.5z"/>
</svg>
