<?xml version="1.0" standalone="no"?>
<!DOCTYPE svg PUBLIC "-//W3C//DTD SVG 20010904//EN"
 "http://www.w3.org/TR/2001/REC-SVG-20010904/DTD/svg10.dtd">
<svg version="1.0" xmlns="http://www.w3.org/2000/svg"
 width="513.000000pt" height="513.000000pt" viewBox="0 0 513.000000 513.000000"
 preserveAspectRatio="xMidYMid meet">
<metadata>
Created by potrace 1.11, written by Peter Selinger 2001-2013
</metadata>
<g transform="translate(0.000000,513.000000) scale(0.100000,-0.100000)"
fill="#000000" stroke="none">
<path d="M2348 5119 c-481 -51 -814 -166 -1237 -424 -179 -109 -426 -327 -592
-520 -175 -205 -361 -515 -448 -750 -13 -33 -28 -74 -35 -90 -8 -17 -17 -45
-20 -63 l-8 -32 492 2 491 3 40 100 c180 448 480 819 874 1080 211 140 503
270 679 302 11 2 45 10 75 17 31 8 76 17 101 20 25 3 56 8 70 11 117 24 447
23 595 -1 29 -5 43 -7 118 -19 161 -27 418 -118 597 -212 142 -75 329 -198
402 -266 45 -41 57 -45 23 -7 -22 24 -49 53 -60 63 -11 10 -45 42 -75 71 -130
124 -349 286 -500 368 -36 20 -86 47 -112 61 -220 121 -627 247 -878 272 -14
2 -47 6 -75 10 -70 10 -436 13 -517 4z"/>
<path d="M3007 4654 c-1 -1 -47 -5 -102 -9 -111 -8 -401 -58 -375 -64 3 -1 59
-13 125 -26 66 -14 131 -27 145 -31 75 -16 275 -90 374 -139 362 -176 644
-450 823 -800 232 -455 261 -998 73 -1399 -114 -243 -309 -413 -532 -463 -43
-10 -78 -21 -78 -25 0 -3 30 -29 68 -57 119 -90 275 -160 397 -179 75 -12 208
-7 270 11 28 8 56 16 64 18 39 11 173 82 228 121 219 154 408 407 523 698 122
309 148 668 70 976 -69 273 -216 527 -429 742 -103 104 -125 123 -232 202
-143 106 -308 198 -478 264 -101 40 -300 100 -365 110 -21 4 -41 8 -45 10 -3
2 -31 7 -62 10 -31 4 -66 9 -78 11 -54 10 -375 26 -384 19z"/>
<path d="M1702 2549 c95 -336 339 -701 643 -959 231 -196 547 -359 772 -399
32 -6 74 -13 93 -17 66 -11 420 -4 550 11 19 2 60 7 90 10 346 39 634 179 820
400 50 59 42 59 -21 -1 -320 -302 -684 -360 -1051 -167 -317 167 -620 533
-771 933 -30 78 -77 235 -77 255 0 3 -240 5 -534 5 l-534 0 20 -71z"/>
<path d="M14 1867 c10 -51 96 -259 156 -378 319 -635 885 -1122 1566 -1348 94
-31 263 -75 324 -85 19 -3 46 -8 60 -11 14 -3 45 -8 70 -11 25 -3 55 -7 67 -9
163 -26 565 -21 723 9 8 1 38 6 65 10 80 13 282 63 380 94 243 79 480 196 700
345 164 112 414 339 525 477 l44 55 -40 -36 c-103 -94 -131 -118 -197 -166
-40 -29 -76 -56 -82 -60 -77 -59 -281 -170 -420 -228 -160 -67 -430 -134 -615
-154 -84 -8 -381 -7 -451 2 -386 50 -684 159 -989 362 -293 194 -492 405 -718
760 -26 42 -141 283 -161 340 l-22 60 -495 0 -496 0 6 -28z"/>
</g>
</svg>
