<?xml version="1.0" standalone="no"?>
<!DOCTYPE svg PUBLIC "-//W3C//DTD SVG 20010904//EN"
 "http://www.w3.org/TR/2001/REC-SVG-20010904/DTD/svg10.dtd">
<svg version="1.0" xmlns="http://www.w3.org/2000/svg"
 width="614.000000pt" height="614.000000pt" viewBox="0 0 614.000000 614.000000"
 preserveAspectRatio="xMidYMid meet">
<metadata>
Created by potrace 1.11, written by Peter Selinger 2001-2013
</metadata>
<g transform="translate(0.000000,614.000000) scale(0.100000,-0.100000)"
fill="#000000" stroke="none">
<path d="M1500 5990 c-135 -82 -299 -180 -365 -219 -66 -38 -208 -123 -315
-188 l-195 -118 -7 -50 c-19 -148 -60 -449 -68 -505 -12 -85 -18 -124 -25
-185 -3 -27 -8 -61 -10 -75 -5 -25 2 -28 387 -164 216 -77 395 -141 398 -144
3 -2 -5 -12 -17 -22 -35 -28 -29 -63 14 -99 21 -17 41 -31 46 -31 4 0 13 -5
20 -10 7 -6 38 -27 70 -46 l57 -36 -27 -30 c-16 -16 -35 -37 -44 -47 -83 -84
-218 -276 -307 -436 -107 -192 -212 -466 -246 -645 -31 -162 -39 -214 -51
-345 -6 -55 -5 -321 0 -370 2 -22 7 -65 10 -95 32 -298 168 -703 311 -928 19
-29 34 -55 34 -58 0 -5 71 -110 97 -144 7 -8 33 -44 60 -80 75 -103 316 -338
443 -432 182 -135 363 -237 560 -315 126 -50 300 -103 390 -118 19 -3 42 -8
50 -10 19 -6 63 -13 125 -20 28 -4 64 -9 80 -12 51 -9 396 -10 470 -2 108 12
158 19 185 24 62 13 77 16 110 21 68 12 267 74 379 119 752 302 1303 960 1467
1750 10 51 13 66 20 112 3 26 8 57 10 68 22 119 21 571 -1 637 -4 12 -7 34
-21 130 -8 62 -70 279 -109 384 -87 233 -237 495 -396 690 -204 251 -482 474
-779 623 -133 67 -335 147 -420 167 -24 5 -142 34 -180 44 -19 5 -71 14 -115
20 -44 6 -93 13 -110 16 -57 10 -401 12 -495 3 -52 -5 -140 -18 -195 -29 -92
-18 -113 -22 -162 -34 -10 -3 -33 -8 -50 -12 l-33 -6 -1 48 c-1 27 -3 65 -5
84 -2 19 -5 57 -8 85 -5 52 -23 75 -61 75 -12 0 -27 -6 -34 -12 -11 -11 -12
-2 -7 50 4 34 11 84 15 110 5 26 12 72 16 102 3 30 8 66 10 80 6 35 13 77 20
130 3 25 10 70 15 100 10 59 15 97 26 175 3 28 8 57 9 66 3 13 -75 46 -373
157 -207 77 -388 143 -402 146 -19 4 -79 -28 -270 -144z m1950 -1615 c121 -16
277 -51 385 -86 188 -61 441 -193 585 -306 98 -76 272 -245 335 -325 428 -543
553 -1245 333 -1878 -153 -440 -435 -794 -828 -1040 -183 -115 -451 -222 -640
-257 -14 -2 -43 -8 -65 -13 -144 -32 -488 -32 -656 0 -30 6 -67 13 -84 16 -81
14 -275 75 -352 110 -138 62 -194 91 -241 120 -29 19 -55 34 -58 34 -3 0 -55
38 -117 84 -330 247 -562 569 -696 964 -22 65 -42 129 -45 143 -2 13 -9 47
-15 74 -29 137 -36 213 -36 395 0 147 7 257 21 323 2 12 7 40 10 62 18 120
104 366 183 523 103 205 297 449 475 600 118 100 319 228 444 283 37 17 76 34
87 39 60 28 224 80 298 96 112 23 183 35 242 40 38 3 72 7 74 10 6 6 306 -3
361 -11z"/>
</g>
</svg>
