<?xml version="1.0" standalone="no"?>
<!DOCTYPE svg PUBLIC "-//W3C//DTD SVG 20010904//EN"
 "http://www.w3.org/TR/2001/REC-SVG-20010904/DTD/svg10.dtd">
<svg version="1.0" xmlns="http://www.w3.org/2000/svg"
 width="150.000000pt" height="150.000000pt" viewBox="0 0 150.000000 150.000000"
 preserveAspectRatio="xMidYMid meet">
<metadata>
Created by potrace 1.11, written by Peter Selinger 2001-2013
</metadata>
<g transform="translate(0.000000,150.000000) scale(0.100000,-0.100000)"
fill="#000000" stroke="none">
<path d="M320 1384 c-63 -41 -121 -79 -128 -83 -12 -7 -21 -53 -25 -131 -2
-19 -5 -40 -9 -45 -13 -20 7 -33 95 -60 49 -16 87 -33 87 -40 0 -7 11 -20 25
-29 l26 -17 -36 -48 c-193 -264 -116 -643 165 -816 238 -145 563 -90 731 125
105 133 151 300 124 455 -18 104 -83 226 -164 305 -133 131 -309 186 -496 156
-76 -13 -80 -12 -81 10 -2 29 -13 46 -26 38 -6 -4 -9 -3 -6 2 3 5 9 42 12 82
4 40 9 78 12 86 3 7 -1 17 -8 22 -11 9 -100 40 -163 58 -14 4 -54 -17 -135
-70z m684 -363 c236 -106 338 -392 224 -627 -43 -88 -121 -165 -210 -208 -87
-41 -143 -53 -222 -49 -259 13 -452 223 -442 481 9 232 183 418 411 439 33 3
61 6 63 8 7 6 138 -27 176 -44z"/>
</g>
</svg>
