<?xml version="1.0" standalone="no"?>
<!DOCTYPE svg PUBLIC "-//W3C//DTD SVG 20010904//EN"
 "http://www.w3.org/TR/2001/REC-SVG-20010904/DTD/svg10.dtd">
<svg version="1.0" xmlns="http://www.w3.org/2000/svg"
 width="130.000000pt" height="130.000000pt" viewBox="0 0 130.000000 130.000000"
 preserveAspectRatio="xMidYMid meet">
<metadata>
Created by potrace 1.11, written by Peter Selinger 2001-2013
</metadata>
<g transform="translate(0.000000,130.000000) scale(0.100000,-0.100000)"
fill="#000000" stroke="none">
<path d="M640 1292 c-285 -22 -507 -176 -603 -420 -9 -23 -17 -46 -17 -50 0
-4 54 -7 120 -7 l119 1 35 69 c105 208 305 330 524 319 102 -5 218 -46 291
-101 l35 -27 -19 25 c-35 47 -172 131 -258 158 -52 17 -185 37 -227 33z"/>
<path d="M765 1172 c-16 -1 -50 -5 -75 -8 l-45 -7 62 -17 c89 -26 160 -67 220
-127 182 -184 170 -500 -22 -573 -29 -11 -30 -12 -10 -27 164 -125 386 49 394
310 5 150 -68 276 -209 367 -83 53 -224 90 -315 82z"/>
<path d="M451 660 c-19 -5 -19 -6 3 -59 60 -139 188 -257 324 -296 41 -12 186
-6 245 9 76 21 105 37 142 78 l30 33 -32 -29 c-41 -37 -124 -65 -171 -59 -57
8 -112 40 -169 99 -49 51 -113 163 -113 197 0 9 -5 19 -11 23 -13 8 -219 11
-248 4z"/>
<path d="M20 470 c0 -24 60 -139 102 -195 220 -296 649 -356 943 -132 68 51
114 97 98 97 -6 0 -13 -4 -15 -8 -6 -15 -92 -69 -143 -90 -103 -43 -193 -54
-304 -37 -162 24 -328 151 -403 306 l-33 68 -122 1 c-77 0 -123 -4 -123 -10z"/>
</g>
</svg>
