<svg xmlns="http://www.w3.org/2000/svg" xmlns:xlink="http://www.w3.org/1999/xlink" viewBox="0 0 166.78 45.36"><defs><style>.cls-1,.cls-2,.cls-3,.cls-5,.cls-6{fill-rule:evenodd;}.cls-1{fill:url(#Новый_образец_градиентной_зал_5);}.cls-2{fill:url(#Новый_образец_градиентной_зал_5-2);}.cls-3{fill:url(#Новый_образец_градиентной_зал_5-3);}.cls-4{fill:url(#Безымянный_градиент_30);}.cls-5{fill:url(#Новый_образец_градиентной_зал_4);}.cls-6{fill:url(#Новый_образец_градиентной_зал_4-2);}</style><linearGradient id="Новый_образец_градиентной_зал_5" x1="51.47" y1="49.24" x2="-8.37" y2="-20.43" gradientUnits="userSpaceOnUse"><stop offset="0.16" stop-color="#8f1335"/><stop offset="0.72" stop-color="#df8e50"/></linearGradient><linearGradient id="Новый_образец_градиентной_зал_5-2" x1="40.47" y1="58.68" x2="-19.37" y2="-10.98" xlink:href="#Новый_образец_градиентной_зал_5"/><linearGradient id="Новый_образец_градиентной_зал_5-3" x1="48.47" y1="51.81" x2="-11.36" y2="-17.86" xlink:href="#Новый_образец_градиентной_зал_5"/><linearGradient id="Безымянный_градиент_30" x1="43.04" y1="17.58" x2="21.16" y2="17.58" gradientUnits="userSpaceOnUse"><stop offset="0" stop-color="#d6d6d6"/><stop offset="0.98" stop-color="#474747"/></linearGradient><linearGradient id="Новый_образец_градиентной_зал_4" x1="120.99" y1="43.46" x2="101.2" y2="-14" gradientUnits="userSpaceOnUse"><stop offset="0.06" stop-color="#8f1335"/><stop offset="0.76" stop-color="#df8e50"/></linearGradient><linearGradient id="Новый_образец_градиентной_зал_4-2" x1="117.77" y1="61.27" x2="104.33" y2="22.24" xlink:href="#Новый_образец_градиентной_зал_4"/></defs><title>elit-logo-l</title><g id="Слой_2" data-name="Слой 2"><g id="Слой_8" data-name="Слой 8"><g id="Слой_9" data-name="Слой 9"><path class="cls-1" d="M21.68,0A22.69,22.69,0,0,0,0,16H8.27A19.09,19.09,0,0,1,26.2,2.81,18.52,18.52,0,0,1,38.64,7.63,22.62,22.62,0,0,0,21.68,0Z"/><path class="cls-2" d="M0,29.37A22.69,22.69,0,0,0,39.43,36.8,18.58,18.58,0,0,1,26.2,42.37a19.08,19.08,0,0,1-17.87-13Z"/><path class="cls-3" d="M27.94,33.55c-5.23,0-12.08-5.33-13.84-12.28h9c1.17,6.32,9.11,15.95,16.53,8.17C37,32.95,33.17,33.55,27.94,33.55Z"/></g><path class="cls-4" d="M25.92,4a18.69,18.69,0,0,0-4.76.61C38.08,7,38.48,27.79,29,29a6.94,6.94,0,0,0,5.86,2c5.71-1,11.57-11.49,5.84-19.73A17.84,17.84,0,0,0,25.92,4Z"/></g><g id="Слой_3" data-name="Слой 3"><path class="cls-5" d="M76.26,15.73H74.79a41.81,41.81,0,0,0-8.38.36,11.83,11.83,0,0,0,.09-1.24c0-.32,0-.79-.09-1.38q5.6.35,9.71.36h.14q-.44-5.85-3.49-9a10.84,10.84,0,0,0-8.21-3.17,10,10,0,0,0-9,4.74,14.17,14.17,0,0,0-.71-4.26A21,21,0,0,1,64.38,0q7.54,0,12,4.3t4.46,11.43q0,7.49-4.06,11.59t-11.42,4.1c-4.37,0-7.69-.83-9.93-2.49L55.16,26a15.25,15.25,0,0,0,9.66,3.7A10.28,10.28,0,0,0,73.17,26q3.08-3.7,3.08-10.26ZM98,.59q6.69,17.54,12,30.24a12.7,12.7,0,0,0-2.19-.17,11,11,0,0,0-2.19.19Q101.17,18.46,95.65,5q-5.44,13.22-9.82,25.83a5.56,5.56,0,0,0-1.47-.18,5.82,5.82,0,0,0-1.51.17Q89,16.31,95,.59A5.39,5.39,0,0,0,96.5.81,5.34,5.34,0,0,0,98,.59Zm37.78,7.5q-2,1.9-10.5,10.93-8.73,9.3-10.72,11.82h-.57q.27-4.16.27-11.43V15.73q0-11.12-.27-15.14a10,10,0,0,0,2,.17A11,11,0,0,0,118,.59q-.17,2.92-.17,8.68V22.6a4.32,4.32,0,0,1,0,.76q2-1.69,10.32-10.59,8.59-9.11,11-12.17h.53q-.19,2.92-.2,8.68V23q0,5.13.2,7.79a9.9,9.9,0,0,0-2-.22,11.39,11.39,0,0,0-2.09.22q.25-4.16.25-11.42V15.74q0-6.28-.05-7.66Zm17.8,22.75q.22-12.17.22-20.77V2.68h-1.19a47.61,47.61,0,0,0-8.15.53A11.84,11.84,0,0,0,144.51,2c0-.32,0-.79-.09-1.38q5,.14,10.58.14T166.78.59a5.6,5.6,0,0,0-.14,1.28,6.64,6.64,0,0,0,.14,1.33,46.7,46.7,0,0,0-7.88-.53h-1.29q-.22,3.67-.22,9.91,0,8.06.27,18.24h-4.12Z"/><path class="cls-6" d="M59.55,41.22A3.3,3.3,0,0,1,60.72,39a3.87,3.87,0,0,1,2.55-.82,3.77,3.77,0,0,1,2.74,1,3.5,3.5,0,0,1,1,2.64,3.46,3.46,0,0,1-1,2.61,3.75,3.75,0,0,1-2.72,1,3.81,3.81,0,0,1-2.75-1,3.48,3.48,0,0,1-1-2.64h-.85v1.68q0,1.18.05,1.79a2.31,2.31,0,0,0-.46-.05,2.63,2.63,0,0,0-.48.05q.05-1,.05-2.62v-.84q0-2.55-.05-3.48a2.29,2.29,0,0,0,.46,0,2.51,2.51,0,0,0,.48,0c0,.45-.05,1.11-.05,2v1ZM63.28,45a2.51,2.51,0,0,0,2-.83A3.59,3.59,0,0,0,66,41.74a3.61,3.61,0,0,0-.7-2.4,2.52,2.52,0,0,0-2-.82,2.49,2.49,0,0,0-2,.85,3.66,3.66,0,0,0-.71,2.41,3.52,3.52,0,0,0,.71,2.36,2.52,2.52,0,0,0,2,.82Zm6.12-3.22v1q0,1.36.06,2a3,3,0,0,0,.69.09,2.14,2.14,0,0,0,1.41-.43,1.45,1.45,0,0,0,.51-1.17q0-1.57-2-1.57l-.71,0Zm-.89,3.49q.1-1,.1-2.81,0-2.87-.06-4.16h1.72a3.87,3.87,0,0,1,1.92.37,1.27,1.27,0,0,1,.61,1.19q0,1.33-1.71,1.67Q73,41.68,73,43.17q0,2.07-2.75,2.07l-.65,0-.55,0-.54,0Zm.92-3.92.57,0q1.88,0,1.88-1.48,0-1.28-1.68-1.28a6.46,6.46,0,0,0-.72.05c0,.37-.05.81-.05,1.31v1.36Zm5.15,3.9q.08-1.25.08-3.55,0-2.08-.07-3.4.58,0,1.24,0l2.33,0v.14c0,.07,0,.12,0,.15s0,.07,0,.14v.15c-.77-.07-1.58-.1-2.41-.1h-.23q0,1.21,0,2.15v.41h.18q.94,0,2.21-.08c0,.14,0,.24,0,.32a2.61,2.61,0,0,0,0,.28A13.71,13.71,0,0,0,76,41.75h-.48v3h.26q.92,0,2.45-.11v.15c0,.07,0,.12,0,.15s0,.09,0,.15v.15H74.58Zm7.66-6.95q1.54,4,2.77,6.95a2.92,2.92,0,0,0-.5,0,2.53,2.53,0,0,0-.5,0q-1-2.85-2.29-5.94-1.25,3-2.25,5.93a1.28,1.28,0,0,0-.34,0,1.33,1.33,0,0,0-.35,0q1.4-3.34,2.8-6.95a1.24,1.24,0,0,0,.34.05,1.23,1.23,0,0,0,.34-.05ZM90.92,40q-.47.44-2.41,2.51T86,45.22h-.13q.06-1,.06-2.62v-.84q0-2.55-.06-3.48a2.3,2.3,0,0,0,.46,0,2.51,2.51,0,0,0,.48,0q0,.67,0,2v3.06a1,1,0,0,1,0,.17q.46-.39,2.37-2.43t2.52-2.8h.12q0,.67,0,2v3.16q0,1.18,0,1.79a2.28,2.28,0,0,0-.46-.05,2.63,2.63,0,0,0-.48.05q.06-1,.06-2.62v-.84q0-1.44,0-1.76Zm2.69,5.23q.06-1.68.06-3.47t-.06-3.48l.5,0,.81,0,.89,0a2.67,2.67,0,0,1,1.69.47A1.58,1.58,0,0,1,98.09,40a1.76,1.76,0,0,1-.73,1.51,3.51,3.51,0,0,1-2.1.53h-.78V43.5q0,.8.06,1.72a2.56,2.56,0,0,0-.43-.05,2.85,2.85,0,0,0-.51.05Zm.88-3.55.46,0q2.19,0,2.19-1.59A1.31,1.31,0,0,0,96.66,39a2.6,2.6,0,0,0-1.49-.33l-.63,0q0,1.1-.05,2.1v.91Zm4.74,3.55q.08-1.23.08-3.74,0-2.2-.07-3.2a2.52,2.52,0,0,0,.48,0,2.36,2.36,0,0,0,.47,0q-.06.5-.06,2.58v.4h4.2v-.4q0-1.46-.09-2.58a2.58,2.58,0,0,0,.49,0,2.43,2.43,0,0,0,.48,0q-.08,1.46-.08,3.2,0,1.58.08,3.74a2.63,2.63,0,0,0-.5,0,2.35,2.35,0,0,0-.47,0q.08-1.29.08-3.05v-.48q-1,0-2.09,0t-2.1,0v.48q0,2.51.05,3.05a2.58,2.58,0,0,0-.49,0,2.29,2.29,0,0,0-.46,0Zm8.7-5.26v1.3a6.55,6.55,0,0,1,.82-.05,3.38,3.38,0,0,1,2,.52,1.93,1.93,0,0,1,0,3,3.38,3.38,0,0,1-2,.52l-.65,0-.55,0-.54,0q.1-1,.1-2.81,0-2.87-.06-4.16l.46.05a2.35,2.35,0,0,0,.47-.05q-.05.69-.05,1.69Zm0,1.79c0,.41,0,.74,0,1q0,1.2.06,2a3,3,0,0,0,.69.09,2.11,2.11,0,0,0,1.41-.44,1.69,1.69,0,0,0,0-2.43,2.1,2.1,0,0,0-1.41-.44,1.18,1.18,0,0,0-.73.17Zm4.31,3.49q.05-1,.05-2.63v-.85q0-2.56-.05-3.49a2.3,2.3,0,0,0,.46,0,2.51,2.51,0,0,0,.48,0q0,.67-.05,2v3.17q0,1.18.05,1.79a1.68,1.68,0,0,0-.46-.07,1.89,1.89,0,0,0-.48.07Zm2.72,0Q115,44,115,41.67q0-2.08-.07-3.4.58,0,1.24,0l2.33,0v.14c0,.07,0,.12,0,.15s0,.07,0,.14v.15c-.77-.07-1.58-.1-2.41-.1h-.23q0,1.21,0,2.15v.41H116c.63,0,1.36,0,2.21-.08,0,.14,0,.24,0,.32a2.61,2.61,0,0,0,0,.28,13.71,13.71,0,0,0-1.91-.08h-.48v3h.26q.92,0,2.45-.11v.15c0,.07,0,.12,0,.15s0,.09,0,.15v.15h-3.62Zm13.16-.44a3.81,3.81,0,0,1-2.28.57,3.52,3.52,0,0,1-2.62-.94,3.63,3.63,0,0,1-.93-2.66,3.48,3.48,0,0,1,1-2.63,3.79,3.79,0,0,1,2.75-1,4.81,4.81,0,0,1,2.19.49,3.26,3.26,0,0,0-.16,1A2.29,2.29,0,0,0,126,38.51a2.44,2.44,0,0,0-2,.85,3.63,3.63,0,0,0-.71,2.4,3.58,3.58,0,0,0,.71,2.35,2.36,2.36,0,0,0,1.91.85,3.47,3.47,0,0,0,2.22-.85l-.06.67Zm.4.44q1.8-3.95,3.15-7.08h.19q1.43,3.56,3,7.08a2.7,2.7,0,0,0-.5-.05,2.9,2.9,0,0,0-.52.05q-.38-1.15-.87-2.31l-.17-.41-1.25,0-1.26,0q-.48,1.09-1,2.72a1.16,1.16,0,0,0-.34-.05,1.62,1.62,0,0,0-.34.05Zm1.89-3.17h2.14l-.17-.45q-.13-.34-.87-2.07l-1.09,2.52Zm8-3.78q1.54,4,2.77,6.95a2.92,2.92,0,0,0-.5,0,2.53,2.53,0,0,0-.5,0q-1-2.85-2.29-5.94-1.25,3-2.25,5.93a1.28,1.28,0,0,0-.34,0,1.33,1.33,0,0,0-.35,0q1.4-3.34,2.8-6.95a1.24,1.24,0,0,0,.34.05,1.23,1.23,0,0,0,.34-.05Zm6.94,7.09a3.81,3.81,0,0,1-2.75-1,3.93,3.93,0,0,1,0-5.27,4.31,4.31,0,0,1,5.47,0,3.5,3.5,0,0,1,1,2.64,3.46,3.46,0,0,1-1,2.61,3.75,3.75,0,0,1-2.72,1Zm0-.4a2.51,2.51,0,0,0,2-.83,3.59,3.59,0,0,0,.71-2.39,3.61,3.61,0,0,0-.7-2.4,2.52,2.52,0,0,0-2-.82,2.49,2.49,0,0,0-2,.85,3.66,3.66,0,0,0-.71,2.41,3.52,3.52,0,0,0,.71,2.36,2.52,2.52,0,0,0,2,.82Zm5.09.25q.08-1.23.08-3.74,0-2.2-.07-3.2a2.52,2.52,0,0,0,.48,0,2.36,2.36,0,0,0,.47,0q-.06.5-.06,2.58v.4h4.2v-.4q0-1.46-.09-2.58a2.58,2.58,0,0,0,.49,0,2.43,2.43,0,0,0,.48,0q-.08,1.46-.08,3.2,0,1.58.09,3.74a2.63,2.63,0,0,0-.5,0,2.35,2.35,0,0,0-.47,0q.08-1.29.08-3.05v-.48q-1,0-2.09,0t-2.1,0v.48q0,2.51.05,3.05a2.58,2.58,0,0,0-.49,0,2.29,2.29,0,0,0-.46,0Zm8.7-5.26v1.3a6.55,6.55,0,0,1,.82-.05,3.38,3.38,0,0,1,2,.52,1.93,1.93,0,0,1,0,3,3.38,3.38,0,0,1-2,.52l-.65,0-.55,0-.54,0q.1-1,.1-2.81,0-2.87-.06-4.16l.46.05a2.35,2.35,0,0,0,.47-.05q-.05.69-.05,1.69Zm0,1.79c0,.41,0,.74,0,1q0,1.2.06,2a3,3,0,0,0,.69.09,2.11,2.11,0,0,0,1.41-.44,1.69,1.69,0,0,0,0-2.43,2.1,2.1,0,0,0-1.41-.44,1.18,1.18,0,0,0-.73.17Zm4.31,3.49q.05-1,.05-2.63v-.85q0-2.56-.05-3.49a2.3,2.3,0,0,0,.46,0,2.51,2.51,0,0,0,.48,0q0,.67-.05,2v3.17q0,1.18.05,1.79a1.68,1.68,0,0,0-.46-.07A1.89,1.89,0,0,0,163.38,45.24Z"/></g></g></svg>