<svg xmlns="http://www.w3.org/2000/svg" viewBox="0 0 122.75 23"><defs><style>.cls-1{fill:#fff;}.cls-2{fill:#ffe159;}.cls-3{fill:#ff8c87;}.cls-4{fill:#ffbeaf;}.cls-5{fill:#ff4a55;}.cls-6{fill:#ff6464;}.cls-7{fill:#ffd2be;}.cls-8{fill:#f1444a;}.cls-9{fill:#ffc83c;}</style></defs><title>elit-logo-white</title><g id="Слой_2" data-name="Слой 2"><g id="Слой_1-2" data-name="Слой 1"><path class="cls-1" d="M4.26,2.78A7.9,7.9,0,0,1,10,5.18a7.76,7.76,0,0,1,2.42,5.69,8,8,0,0,1-2.38,5.74,7.6,7.6,0,0,1-5.64,2.46H4.12A7.71,7.71,0,0,1,0,17.9v-.78a7.59,7.59,0,0,0,4.37,1.34,7,7,0,0,0,4.44-1.64,7.76,7.76,0,0,0,2.72-4H3.8v-.61h7.85a8.2,8.2,0,0,0,.1-1.26A7.28,7.28,0,0,0,9.56,5.6,7.2,7.2,0,0,0,4.26,3.39,7.43,7.43,0,0,0,0,4.73V4A8.15,8.15,0,0,1,4.26,2.78Z"/><path class="cls-1" d="M14.64,18.8H14l4.64-9.72,4.66,9.72H22.6l-4-8.29Z"/><path class="cls-1" d="M33.47,9.37V18.8h-.65V10.42L26,18.8h-.59V9.37h.65v8.38l6.78-8.38Z"/><path class="cls-1" d="M43.47,9.37V10H39.86V18.8h-.67V10H35.57V9.37Z"/><path class="cls-1" d="M73.67,9.35h1.76a1.8,1.8,0,0,1,1.35.56,2,2,0,0,1,.54,1.48,1.61,1.61,0,0,1-.78,1.43A2.64,2.64,0,0,1,78,13.91a3.36,3.36,0,0,1,.58,2,2.82,2.82,0,0,1-.9,2,3,3,0,0,1-2.21.91H73.67Zm1.78.57H74.34V12.6H75.5a1.19,1.19,0,0,0,.88-.39,1.28,1.28,0,0,0,.38-.92,1.35,1.35,0,0,0-.4-1A1.22,1.22,0,0,0,75.46,9.92Zm0,3.25H74.34v5.06h1.13a2.33,2.33,0,0,0,1.73-.75,2.48,2.48,0,0,0,.72-1.8,2.45,2.45,0,0,0-.72-1.79A2.35,2.35,0,0,0,75.48,13.17Z"/><path class="cls-1" d="M85.33,19.05H85.1a4.61,4.61,0,0,1-3.43-1.49,4.87,4.87,0,0,1-1.44-3.5,4.72,4.72,0,0,1,1.47-3.47,5,5,0,0,1,3.63-1.46A4.84,4.84,0,0,1,89,10.86l-6.59,6.51a4.26,4.26,0,0,0,2.63,1.09,4.42,4.42,0,0,0,2.26-.58A5,5,0,0,0,89,16.34v1.07A4.75,4.75,0,0,1,85.33,19.05Zm-.18-9.32a4.07,4.07,0,0,0-3,1.29,4.08,4.08,0,0,0-1.29,3A4.3,4.3,0,0,0,82,16.93l6.11-6.07A4.4,4.4,0,0,0,85.15,9.73Z"/><path class="cls-1" d="M90.81,18.8H90.2l4.64-9.72L99.5,18.8h-.74l-4-8.29Z"/><path class="cls-1" d="M109.65,9.37V18.8H109V10.42l-6.8,8.38h-.59V9.37h.65v8.38L109,9.37Z"/><path class="cls-1" d="M112.79,23V9.35h.67v2.31a4.29,4.29,0,0,1,1.77-1.85,5,5,0,0,1,2.51-.69,4.82,4.82,0,0,1,3.54,1.46,4.92,4.92,0,0,1,0,7A4.82,4.82,0,0,1,117.75,19a4.9,4.9,0,0,1-2.46-.68,4.65,4.65,0,0,1-1.83-1.84V23Zm.63-8.9a4.41,4.41,0,0,0,4.36,4.35,4.09,4.09,0,0,0,3-1.29,4.36,4.36,0,0,0,0-6.14,4.09,4.09,0,0,0-3-1.3A4.14,4.14,0,0,0,114.72,11,4.25,4.25,0,0,0,113.42,14.1Z"/><path class="cls-1" d="M57.65,12.16H53.93V3h-.69V18.77h.69v-6H57.7A5.78,5.78,0,0,1,57.65,12.16Z"/></g><g id="Слой_2-2" data-name="Слой 2"><path class="cls-2" d="M67.84,5.07a7.39,7.39,0,1,0,2.53,10.14A7.39,7.39,0,0,0,67.84,5.07Zm-7.1,11.81a6.38,6.38,0,1,1,8.76-2.18A6.38,6.38,0,0,1,60.75,16.88Z"/><polygon class="cls-3" points="72.34 4.64 69.23 2.77 68.19 4.49 69.89 5.51 72.34 4.64"/><polygon class="cls-4" points="68.54 0 66.12 0.9 69.23 2.77 72.34 4.64 72 2.08 68.54 0"/><polygon class="cls-5" points="68.54 0 67.85 1.94 70.27 1.04 68.54 0"/><polygon class="cls-3" points="72 2.08 70.61 3.6 70.27 1.04 72 2.08"/><polygon class="cls-3" points="70.27 1.04 67.85 1.94 68.54 0 70.27 1.04"/><polygon class="cls-6" points="68.54 0 67.85 1.94 66.12 0.9 68.54 0"/><polygon class="cls-7" points="72 2.08 70.61 3.6 72.34 4.64 72 2.08"/><polygon class="cls-8" points="68.19 4.49 69.23 2.77 66.12 0.9 66.5 3.48 68.19 4.49"/><polygon class="cls-6" points="68.19 4.49 68.94 4.95 70.61 3.6 67.85 1.94 67.44 4.04 68.19 4.49"/><path class="cls-9" d="M67.5,5.65a6.72,6.72,0,1,0,2.3,9.22A6.72,6.72,0,0,0,67.5,5.65ZM60.92,16.59a6,6,0,1,1,8.3-2.07A6,6,0,0,1,60.92,16.59Z"/><path class="cls-2" d="M66.06,4.78l.1-1.23a.17.17,0,0,1,.25-.13L70,5.57a.17.17,0,0,1,0,.29l-1,.66Z"/></g></g></svg>