<svg xmlns="http://www.w3.org/2000/svg" viewBox="0 0 51.88 28.73"><defs><style>.cls-1{fill:#ffe159;}.cls-2{fill:#ff8c87;}.cls-3{fill:#ffbeaf;}.cls-4{fill:#ff4a55;}.cls-5{fill:#ff6464;}.cls-6{fill:#ffd2be;}.cls-7{fill:#f1444a;}.cls-8{fill:#ffc83c;}.cls-9{fill:#ff2b2b;}</style></defs><title>elit-logo</title><g id="Слой_2" data-name="Слой 2"><g id="Слой_2_копия_" data-name="Слой 2 (копия)"><path class="cls-1" d="M6.87,7.75a11.29,11.29,0,1,0,15.49,3.87A11.29,11.29,0,0,0,6.87,7.75Zm10.83,18A9.75,9.75,0,1,1,21,12.41,9.75,9.75,0,0,1,17.69,25.79Z"/><polygon class="cls-2" points="9.51 1.37 4.75 4.22 6.34 6.87 8.93 5.31 9.51 1.37"/><polygon class="cls-3" points="0.53 3.17 0 7.08 4.75 4.22 9.51 1.37 5.81 0 0.53 3.17"/><polygon class="cls-4" points="0.53 3.17 2.64 5.49 3.17 1.58 0.53 3.17"/><polygon class="cls-2" points="5.81 0 6.87 2.96 3.17 1.58 5.81 0"/><polygon class="cls-2" points="3.17 1.58 2.64 5.49 0.53 3.17 3.17 1.58"/><polygon class="cls-5" points="0.53 3.17 2.64 5.49 0 7.08 0.53 3.17"/><polygon class="cls-6" points="5.81 0 6.87 2.96 9.51 1.37 5.81 0"/><polygon class="cls-7" points="6.34 6.87 4.75 4.22 0 7.08 3.75 8.42 6.34 6.87"/><polygon class="cls-5" points="6.34 6.87 7.49 6.17 6.87 2.96 2.64 5.49 5.19 7.56 6.34 6.87"/><path class="cls-8" d="M7.39,8.63a10.27,10.27,0,1,0,14.08,3.52A10.27,10.27,0,0,0,7.39,8.63Zm10,16.73A9.24,9.24,0,1,1,20.6,12.68,9.24,9.24,0,0,1,17.43,25.35Z"/><path class="cls-1" d="M5.19,9.95l-1.59-1a.26.26,0,0,1,0-.44L9.06,5.23a.26.26,0,0,1,.39.2L9.6,7.31Z"/><path class="cls-9" d="M12.68,9.27a7.9,7.9,0,0,1,5.77,2.4,7.76,7.76,0,0,1,2.42,5.69,8,8,0,0,1-2.38,5.74,7.6,7.6,0,0,1-5.64,2.46h-.31a7.71,7.71,0,0,1-4.12-1.18v-.78A7.6,7.6,0,0,0,12.78,25a7,7,0,0,0,4.44-1.64,7.77,7.77,0,0,0,2.72-4H12.22v-.61h7.85a8.19,8.19,0,0,0,.1-1.26A7.28,7.28,0,0,0,18,12.09a7.2,7.2,0,0,0-5.29-2.22,7.43,7.43,0,0,0-4.26,1.34v-.76A8.15,8.15,0,0,1,12.68,9.27Z"/><path class="cls-9" d="M23.05,25.29h-.61l4.64-9.72,4.66,9.72H31L27,17Z"/><path class="cls-9" d="M41.89,15.86v9.43h-.65V16.91l-6.8,8.38h-.59V15.86h.65v8.38l6.78-8.38Z"/><path class="cls-9" d="M51.88,15.86v.59H48.27v8.84H47.6V16.45H44v-.59Z"/></g></g></svg>