<svg xmlns="http://www.w3.org/2000/svg" xmlns:xlink="http://www.w3.org/1999/xlink" viewBox="0 0 152.28 31.42"><defs><style>.cls-1,.cls-2,.cls-3,.cls-5{fill-rule:evenodd;}.cls-1{fill:url(#Новый_образец_градиентной_зал_5);}.cls-2{fill:url(#Новый_образец_градиентной_зал_5-2);}.cls-3{fill:url(#Новый_образец_градиентной_зал_5-3);}.cls-4{fill:url(#Безымянный_градиент_30);}.cls-5{fill:url(#Новый_образец_градиентной_зал_4);}</style><linearGradient id="Новый_образец_градиентной_зал_5" x1="35.65" y1="34.11" x2="-5.8" y2="-14.15" gradientUnits="userSpaceOnUse"><stop offset="0.16" stop-color="#8f1335"/><stop offset="0.72" stop-color="#df8e50"/></linearGradient><linearGradient id="Новый_образец_градиентной_зал_5-2" x1="28.03" y1="40.65" x2="-13.41" y2="-7.61" xlink:href="#Новый_образец_градиентной_зал_5"/><linearGradient id="Новый_образец_градиентной_зал_5-3" x1="33.58" y1="35.89" x2="-7.87" y2="-12.37" xlink:href="#Новый_образец_градиентной_зал_5"/><linearGradient id="Безымянный_градиент_30" x1="29.81" y1="12.17" x2="14.66" y2="12.17" gradientUnits="userSpaceOnUse"><stop offset="0" stop-color="#d6d6d6"/><stop offset="0.98" stop-color="#474747"/></linearGradient><linearGradient id="Новый_образец_градиентной_зал_4" x1="106.49" y1="43.46" x2="86.7" y2="-14" gradientUnits="userSpaceOnUse"><stop offset="0.06" stop-color="#8f1335"/><stop offset="0.76" stop-color="#df8e50"/></linearGradient></defs><title>elit-logo-s</title><g id="Слой_2" data-name="Слой 2"><g id="Слой_10" data-name="Слой 10"><path class="cls-1" d="M15,0A15.72,15.72,0,0,0,0,11.08H5.73A13.22,13.22,0,0,1,18.15,1.94a12.83,12.83,0,0,1,8.62,3.34A15.67,15.67,0,0,0,15,0Z"/><path class="cls-2" d="M0,20.35a15.71,15.71,0,0,0,27.31,5.14,12.87,12.87,0,0,1-9.17,3.86,13.22,13.22,0,0,1-12.38-9Z"/><path class="cls-3" d="M19.35,23.24c-3.62,0-8.37-3.69-9.59-8.51H16c.81,4.38,6.31,11,11.45,5.66C25.65,22.82,23,23.24,19.35,23.24Z"/><path class="cls-4" d="M18,2.79a13,13,0,0,0-3.29.42c11.72,1.65,12,16,5.42,16.89a4.8,4.8,0,0,0,4.06,1.4c4-.71,8-8,4-13.67A12.36,12.36,0,0,0,18,2.79Z"/><path class="cls-5" d="M61.76,15.73H60.29a41.81,41.81,0,0,0-8.38.36A11.83,11.83,0,0,0,52,14.85c0-.32,0-.79-.09-1.38q5.6.35,9.71.36h.14q-.44-5.85-3.49-9a10.84,10.84,0,0,0-8.21-3.17,10,10,0,0,0-9,4.74,14.17,14.17,0,0,0-.71-4.26A21,21,0,0,1,49.88,0q7.54,0,12,4.3t4.46,11.43q0,7.49-4.06,11.59t-11.42,4.1c-4.37,0-7.69-.83-9.93-2.49L40.66,26a15.25,15.25,0,0,0,9.66,3.7A10.28,10.28,0,0,0,58.67,26q3.08-3.7,3.08-10.26ZM83.46.59q6.69,17.54,12,30.24a12.7,12.7,0,0,0-2.19-.17,11,11,0,0,0-2.19.19Q86.67,18.46,81.15,5q-5.44,13.22-9.82,25.83a5.56,5.56,0,0,0-1.47-.18,5.82,5.82,0,0,0-1.51.17Q74.47,16.31,80.53.59A5.39,5.39,0,0,0,82,.81,5.34,5.34,0,0,0,83.46.59Zm37.78,7.5q-2,1.9-10.5,10.93Q102,28.31,100,30.83h-.57q.27-4.16.27-11.43V15.73q0-11.12-.27-15.14a10,10,0,0,0,2,.17,11,11,0,0,0,2.08-.17q-.17,2.92-.17,8.68V22.6a4.32,4.32,0,0,1,0,.76q2-1.69,10.32-10.59,8.59-9.11,11-12.17h.53q-.19,2.92-.2,8.68V23q0,5.13.2,7.79a9.9,9.9,0,0,0-2-.22,11.39,11.39,0,0,0-2.09.22q.25-4.16.25-11.42V15.74q0-6.28-.05-7.66ZM139,30.83q.22-12.17.22-20.77V2.68h-1.19a47.61,47.61,0,0,0-8.15.53A11.84,11.84,0,0,0,130,2c0-.32,0-.79-.09-1.38q5,.14,10.58.14T152.28.59a5.6,5.6,0,0,0-.14,1.28,6.64,6.64,0,0,0,.14,1.33,46.7,46.7,0,0,0-7.88-.53h-1.29q-.22,3.67-.22,9.91,0,8.06.27,18.24H139Z"/></g></g></svg>